<svg width="53" height="66" viewBox="0 0 53 66" fill="none" xmlns="http://www.w3.org/2000/svg">
<path d="M52.998 24.3C52.998 19.4939 51.4567 14.7957 48.5691 10.7996C45.6815 6.80352 41.5773 3.68893 36.7754 1.84972C31.9735 0.0105178 26.6897 -0.470702 21.592 0.466917C16.4944 1.40454 11.8119 3.71888 8.13668 7.11729C4.46147 10.5157 1.95863 14.8455 0.944643 19.5593C-0.0693428 24.273 0.451072 29.1589 2.44008 33.5991C4.42908 38.0394 7.79735 41.8345 12.1189 44.5046C16.4405 47.1747 21.5213 48.5999 26.7188 48.5999L26.7188 24.3H52.998Z" fill="white"/>
<path d="M0.230636 40.9417C0.18499 45.7477 1.6785 50.4583 4.5223 54.4779C7.3661 58.4975 11.4325 61.6454 16.2072 63.5237C20.9819 65.402 26.2505 65.9262 31.3468 65.03C36.443 64.1339 41.138 61.8577 44.8381 58.4892C48.5381 55.1207 51.077 50.8113 52.1337 46.1059C53.1905 41.4004 52.7175 36.5103 50.7747 32.054C48.8319 27.5976 45.5065 23.7751 41.219 21.0698C36.9315 18.3646 31.8745 16.8981 26.6875 16.8558L26.4567 41.1555L0.230636 40.9417Z" fill="#11A3A6"/>
</svg>
